<svg width="114" height="114" viewBox="0 0 114 114" fill="none" xmlns="http://www.w3.org/2000/svg">
<g clip-path="url(#clip0_63_155)">
<path d="M114 88.293C112.341 88.9205 110.509 88.9191 108.851 88.2891C107.193 87.6591 105.823 86.4439 104.999 84.873L88.6113 62.2107L86.2363 59.0425L67.2221 84.9015C66.4477 86.4065 65.1518 87.578 63.5764 88.197C62.0011 88.8159 60.2543 88.8399 58.6626 88.2645L83.163 55.3945L60.3726 25.7022C62.0113 25.1117 63.8034 25.1039 65.4473 25.6801C67.0911 26.2563 68.4862 27.3813 69.3976 28.8657L86.3836 51.8082L103.465 28.9607C104.245 27.4825 105.541 26.3425 107.107 25.7575C108.673 25.1725 110.399 25.1832 111.958 25.7877L103.113 37.525L91.1336 53.1192C90.8009 53.416 90.5347 53.7797 90.3524 54.1866C90.1701 54.5934 90.0759 55.0342 90.0759 55.48C90.0759 55.9258 90.1701 56.3666 90.3524 56.7734C90.5347 57.1802 90.8009 57.544 91.1336 57.8407L113.953 88.2977L114 88.293ZM0.00955698 54.986L2.00456 45.1297C7.48606 25.6405 29.8301 17.5322 45.2011 29.5972C54.2023 36.67 56.4491 46.683 56.0073 57.969H5.30106C4.47931 78.1232 19.0238 90.2927 37.6201 84.075C40.6347 82.9898 43.3331 81.1739 45.4735 78.7897C47.6139 76.4056 49.1295 73.5277 49.8846 70.414C50.8678 67.2505 52.4876 66.709 55.4611 67.621C54.9655 71.4798 53.6015 75.176 51.4714 78.4316C49.3413 81.6872 46.5007 84.4173 43.1633 86.4167C37.6505 89.4322 31.3255 90.6273 25.0925 89.8314C18.8596 89.0354 13.0379 86.289 8.45981 81.985C3.9332 76.8901 1.19742 70.4543 0.669807 63.6595C0.669807 62.5432 0.289807 61.4982 0.033307 60.496C0.0101841 58.661 -0.000899446 56.8259 5.69823e-05 54.9907L0.00955698 54.986ZM5.36281 53.6275H51.2193C50.9343 39.0165 41.7146 28.652 29.4168 28.557C15.7273 28.367 5.93281 38.5035 5.32956 53.561L5.36281 53.6275Z" fill="white"/>
</g>
<defs>
<clipPath id="clip0_63_155">
<rect width="114" height="114" fill="white"/>
</clipPath>
</defs>
</svg>
