<svg width="33" height="36" viewBox="0 0 33 36" fill="none" xmlns="http://www.w3.org/2000/svg">
<g clip-path="url(#clip0_82_79)">
<path d="M31.25 2H4.24297C3.00547 2 2 3.01953 2 4.27109V31.2289C2 32.4805 3.00547 33.5 4.24297 33.5H31.25C32.4875 33.5 33.5 32.4805 33.5 31.2289V4.27109C33.5 3.01953 32.4875 2 31.25 2ZM11.5203 29H6.85156V13.9672H11.5273V29H11.5203ZM9.18594 11.9141C7.68828 11.9141 6.47891 10.6977 6.47891 9.20703C6.47891 7.71641 7.68828 6.5 9.18594 6.5C10.6766 6.5 11.893 7.71641 11.893 9.20703C11.893 10.7047 10.6836 11.9141 9.18594 11.9141ZM29.0211 29H24.3523V21.6875C24.3523 19.9438 24.3172 17.7008 21.9266 17.7008C19.4937 17.7008 19.1211 19.5992 19.1211 21.5609V29H14.4523V13.9672H18.9312V16.0203H18.9945C19.6203 14.8391 21.1461 13.5945 23.4172 13.5945C28.1422 13.5945 29.0211 16.7094 29.0211 20.7594V29Z" fill="white"/>
</g>
<defs>
<clipPath id="clip0_82_79">
<rect width="33" height="35.5" fill="white"/>
</clipPath>
</defs>
</svg>
