<svg width="34" height="33" viewBox="0 0 34 33" fill="none" xmlns="http://www.w3.org/2000/svg">
<g clip-path="url(#clip0_82_77)">
<path d="M17.4167 15.5L5.08333 8V23H18.9583V26H5.08333C4.23542 26 3.50955 25.7063 2.90573 25.1188C2.30191 24.5312 2 23.825 2 23V5C2 4.175 2.30191 3.46875 2.90573 2.88125C3.50955 2.29375 4.23542 2 5.08333 2H29.75C30.5979 2 31.3238 2.29375 31.9276 2.88125C32.5314 3.46875 32.8333 4.175 32.8333 5V15.5H29.75V8L17.4167 15.5ZM17.4167 12.5L29.75 5H5.08333L17.4167 12.5ZM28.2083 30.5L26.05 28.4L28.4781 26H22.0417V23H28.4781L26.0115 20.6L28.2083 18.5L34.375 24.5L28.2083 30.5ZM5.08333 8V24.5V15.5V15.6125V5V8Z" fill="white"/>
</g>
<defs>
<clipPath id="clip0_82_77">
<rect width="34" height="32.5" fill="white"/>
</clipPath>
</defs>
</svg>
