<svg width="107" height="107" viewBox="0 0 107 107" fill="none" xmlns="http://www.w3.org/2000/svg">
<path d="M76.6521 42.5994C71.0168 17.7219 57.6953 9.54529 56.2641 6.42C55.0158 4.66342 53.9012 2.16675 52.9873 0C52.8268 2.20688 52.7421 3.05396 50.6556 5.27867C47.4322 7.80208 30.8695 21.6943 29.5231 49.9512C28.2658 76.3088 48.5601 92.0155 51.3154 94.0173L51.6275 94.2403C52.2012 98.4835 52.6917 102.738 53.0987 107H55.2432C55.7514 102.399 56.5094 97.8337 57.5169 93.3129C59.3761 91.9933 60.2098 91.2487 61.3065 90.2233C66.5003 85.4185 70.6279 79.5772 73.4226 73.0771C76.2172 66.5771 77.6166 59.5628 77.5304 52.488C77.575 48.8589 77.0712 45.0782 76.6521 42.5994ZM52.8624 79.1354C52.8624 79.1354 52.8624 42.1714 54.0885 42.1758C55.0381 42.1758 56.2731 89.8577 56.2731 89.8577C54.5744 89.6571 52.8624 82.011 52.8624 79.1354Z" fill="white"/>
</svg>
