<svg width="37" height="35" viewBox="0 0 37 35" fill="none" xmlns="http://www.w3.org/2000/svg">
<path d="M27.3062 30.75C24.4417 30.75 21.6115 30.1255 18.8156 28.8766C16.0198 27.6276 13.476 25.8573 11.1844 23.5656C8.89271 21.274 7.1224 18.7302 5.87344 15.9344C4.62448 13.1385 4 10.3083 4 7.44375C4 7.03125 4.1375 6.6875 4.4125 6.4125C4.6875 6.1375 5.03125 6 5.44375 6H11.0125C11.3333 6 11.6198 6.10885 11.8719 6.32656C12.124 6.54427 12.2729 6.80208 12.3188 7.1L13.2125 11.9125C13.2583 12.2792 13.2469 12.5885 13.1781 12.8406C13.1094 13.0927 12.9833 13.3104 12.8 13.4938L9.46563 16.8625C9.92396 17.7104 10.4682 18.5297 11.0984 19.3203C11.7286 20.1109 12.4219 20.8729 13.1781 21.6063C13.8885 22.3167 14.6333 22.9755 15.4125 23.5828C16.1917 24.1901 17.0167 24.7458 17.8875 25.25L21.1187 22.0188C21.325 21.8125 21.5943 21.6578 21.9266 21.5547C22.2589 21.4516 22.5854 21.4229 22.9062 21.4688L27.65 22.4312C27.9708 22.5229 28.2344 22.6891 28.4406 22.9297C28.6469 23.1703 28.75 23.4396 28.75 23.7375V29.3062C28.75 29.7188 28.6125 30.0625 28.3375 30.3375C28.0625 30.6125 27.7188 30.75 27.3062 30.75ZM8.15938 14.25L10.4281 11.9813L9.84375 8.75H6.78437C6.89896 9.68958 7.05938 10.6177 7.26562 11.5344C7.47188 12.451 7.76979 13.3563 8.15938 14.25ZM20.4656 26.5562C21.3594 26.9458 22.2703 27.2552 23.1984 27.4844C24.1266 27.7135 25.0604 27.8625 26 27.9312V24.9062L22.7688 24.2531L20.4656 26.5562Z" fill="white"/>
<path d="M20 13.5H28V11.5833H20V13.5ZM20 10.625H32V8.70833H20V10.625ZM20 7.75H32V5.83333H20V7.75ZM16 21.1667V3.91667C16 3.38958 16.1958 2.93837 16.5875 2.56302C16.9792 2.18767 17.45 2 18 2H34C34.55 2 35.0208 2.18767 35.4125 2.56302C35.8042 2.93837 36 3.38958 36 3.91667V15.4167C36 15.9437 35.8042 16.395 35.4125 16.7703C35.0208 17.1457 34.55 17.3333 34 17.3333H20L16 21.1667ZM19.15 15.4167H34V3.91667H18V16.4948L19.15 15.4167Z" fill="white"/>
</svg>
