<svg width="106" height="106" viewBox="0 0 106 106" fill="none" xmlns="http://www.w3.org/2000/svg">
<path d="M62.8492 53.0177C62.8492 55.6361 61.8093 58.1474 59.9582 59.9993C58.1071 61.8512 55.5963 62.8922 52.9779 62.8934C50.3587 62.8934 47.8468 61.8529 45.9948 60.0008C44.1427 58.1488 43.1022 55.6369 43.1022 53.0177C43.1022 50.3993 44.1421 47.888 45.9932 46.0361C47.8443 44.1842 50.3551 43.1432 52.9735 43.142C55.5927 43.142 58.1046 44.1825 59.9566 46.0345C61.8087 47.8866 62.8492 50.3985 62.8492 53.0177ZM74.5445 5.80353C68.5997 5.80353 60.8219 10.0435 52.9558 17.384C45.0942 10.0833 37.312 5.89186 31.3716 5.89186C29.5607 5.89186 27.9133 6.30261 26.4867 7.11969C20.4138 10.6221 19.0535 21.5357 22.1893 35.2318C8.745 39.3834 0 46.0217 0 53.0177C0 60.0402 8.78917 66.6961 22.2733 70.8169C19.1639 84.5659 20.5507 95.4972 26.6369 98.9952C28.0502 99.8211 29.6844 100.21 31.5041 100.21C37.4445 100.21 45.2267 95.9698 53.0927 88.6204C60.9544 95.9256 68.7366 100.117 74.677 100.117C76.4878 100.117 78.1352 99.7195 79.5618 98.9024C85.6303 95.4044 86.9951 84.4909 83.8592 70.7904C97.255 66.674 106 60.0225 106 53.0177C106 45.9952 97.2108 39.3393 83.7268 35.2097C86.8361 21.4739 85.4492 10.5338 79.3631 7.03136C77.9586 6.21869 76.3288 5.80794 74.5445 5.80353ZM74.5224 10.6177V10.6442C75.5162 10.6442 76.3156 10.8385 76.9869 11.2051C79.9284 12.8923 81.2048 19.3097 80.2111 27.5644C79.9726 29.5961 79.5839 31.7382 79.1069 33.9244C74.8669 32.8821 70.2471 32.0827 65.3843 31.5659C62.4693 27.5689 59.4439 23.9384 56.3964 20.7584C63.4277 14.2217 70.0307 10.6354 74.5268 10.6221L74.5224 10.6177ZM31.3716 10.706C35.8412 10.706 42.4751 14.2747 49.5241 20.776C46.4943 23.956 43.4732 27.5644 40.6024 31.5615C35.7132 32.0783 31.0889 32.8777 26.8533 33.9377C26.3587 31.7735 25.9921 29.68 25.7315 27.666C24.7157 19.4157 25.97 13.0027 28.885 11.2934C29.7242 10.8959 30.6517 10.7281 31.3716 10.706ZM52.9337 24.1769C54.9433 26.2439 56.9529 28.5582 58.9404 31.0845C56.9971 30.9962 55.0096 30.9344 53 30.9344C50.9683 30.9344 48.9587 30.9785 46.9933 31.0845C48.9367 28.5582 50.9462 26.2483 52.9337 24.1769ZM53 35.775C56.2683 35.775 59.5234 35.9252 62.7255 36.1858C64.5187 38.7563 66.2677 41.499 67.9504 44.4008C69.5934 47.2274 71.0863 50.0983 72.4466 52.9956C71.0863 55.8885 69.5934 58.7814 67.9725 61.6081C66.2942 64.5231 64.5584 67.2968 62.7608 69.8673C59.5455 70.1455 56.286 70.3001 53 70.3001C49.7317 70.3001 46.4766 70.1455 43.2745 69.8894C41.4813 67.3189 39.7323 64.5717 38.0496 61.6744C36.4066 58.8477 34.9137 55.9769 33.5534 53.0795C34.8917 50.1778 36.4066 47.2804 38.0275 44.4494C39.7058 41.5344 41.4416 38.7695 43.2392 36.199C46.4545 35.9164 49.714 35.7662 53 35.7662V35.775ZM36.9454 36.8969C35.8854 38.5619 34.8254 40.2668 33.8361 42.0202C32.8423 43.7427 31.9148 45.474 31.0315 47.2054C29.8611 44.308 28.8673 41.4195 28.0458 38.6061C30.8725 37.9436 33.8537 37.3518 36.9454 36.8969ZM69.0104 36.8969C72.08 37.3518 75.0392 37.9127 77.8702 38.6061C77.0752 41.3974 76.0815 44.2683 74.9553 47.1435C74.0719 45.421 73.1444 43.6853 72.1286 41.9584C71.1348 40.227 70.0748 38.5399 69.0148 36.8969H69.0104ZM82.5387 39.8781C84.6763 40.5406 86.708 41.2782 88.6116 42.0776C96.2612 45.3459 101.208 49.6213 101.208 53.0133C101.186 56.4053 96.2392 60.6983 88.5895 63.9445C86.7345 64.7395 84.7028 65.455 82.6049 66.1219C81.3682 61.8908 79.7517 57.4829 77.7466 52.9603C79.7341 48.4685 81.3241 44.0828 82.5387 39.8693V39.8781ZM23.3774 39.8958C24.6052 44.1358 26.2262 48.5392 28.2358 53.0574C26.2482 57.5492 24.6494 61.9349 23.4392 66.1484C21.3016 65.4859 19.2699 64.7439 17.3884 63.9401C9.73875 60.685 4.79208 56.4053 4.79208 53.0133C4.79208 49.6213 9.73875 45.3194 17.3884 42.0776C19.2434 41.2826 21.2751 40.5671 23.3774 39.8958ZM74.9553 58.7991C76.1257 61.7009 77.1194 64.5938 77.9409 67.4028C75.1142 68.0962 72.1286 68.6836 69.0369 69.1253C70.0969 67.469 71.1569 65.7598 72.1507 64.0108C73.1444 62.2883 74.0675 60.5304 74.9553 58.7991ZM31.0315 58.8874C31.9148 60.6188 32.8423 62.3457 33.8582 64.077C34.874 65.7995 35.9119 67.4867 36.9719 69.1253C33.9023 68.6748 30.9432 68.1094 28.1121 67.4204C28.9071 64.6379 29.9052 61.7583 31.0271 58.883L31.0315 58.8874ZM79.1467 72.08C79.6413 74.2574 80.03 76.3554 80.2685 78.3649C81.2843 86.6153 80.03 93.0283 77.115 94.7419C76.4657 95.1394 75.6222 95.3073 74.6284 95.3073C70.1587 95.3073 63.5249 91.743 56.4759 85.2373C59.5057 82.0573 62.5267 78.4533 65.3976 74.4606C70.2868 73.9394 74.9111 73.14 79.1467 72.08ZM26.8975 72.1242C31.1375 73.1577 35.7573 73.9571 40.6201 74.4739C43.5351 78.4709 46.5605 82.1014 49.608 85.277C42.5634 91.827 35.9517 95.4133 31.4555 95.4133C30.4838 95.3912 29.6623 95.1925 29.0131 94.8303C26.0716 93.1519 24.7952 86.7301 25.7889 78.4754C26.0274 76.4437 26.4205 74.306 26.8975 72.1242ZM47.0375 74.9509C48.9808 75.0392 50.9683 75.101 52.9779 75.101C55.0096 75.101 57.0192 75.0569 58.9846 74.9509C57.0412 77.4772 55.0317 79.7871 53.0442 81.8629C51.0346 79.7871 49.025 77.4772 47.0375 74.9509Z" fill="white"/>
</svg>
